<svg xmlns="http://www.w3.org/2000/svg" viewBox="0 0 368 368"><title>hb</title><g id="collaborate"><rect id="bounds" width="368" height="368" style="fill:#020202"/><g id="center"><g id="beehive"><path d="M176,152h16a4,4,0,0,1,4,4v4a0,0,0,0,1,0,0H172a0,0,0,0,1,0,0v-4A4,4,0,0,1,176,152Z" style="fill:#fff"/><path d="M172,208h24a0,0,0,0,1,0,0v4a4,4,0,0,1-4,4H176a4,4,0,0,1-4-4v-4A0,0,0,0,1,172,208Z" style="fill:#fff"/><path d="M164,166h40a4,4,0,0,1,4,4v4a0,0,0,0,1,0,0H160a0,0,0,0,1,0,0v-4A4,4,0,0,1,164,166Z" style="fill:#fff"/><path d="M160,194h48a0,0,0,0,1,0,0v4a4,4,0,0,1-4,4H164a4,4,0,0,1-4-4v-4A0,0,0,0,1,160,194Z" style="fill:#fff"/><rect x="152" y="180" width="64" height="8" rx="4" ry="4" style="fill:#fff"/><path d="M143,169.14v29.72a15.26,15.26,0,0,0,7.63,13.22l25.74,14.86a15.26,15.26,0,0,0,15.26,0l25.74-14.86A15.26,15.26,0,0,0,225,198.86V169.14a15.26,15.26,0,0,0-7.63-13.22l-25.74-14.86a15.26,15.26,0,0,0-15.26,0l-25.74,14.86A15.26,15.26,0,0,0,143,169.14Z" style="fill:none;stroke:#fff;stroke-miterlimit:10;stroke-width:2px;opacity:0.4"/></g><circle id="ring1" cx="184" cy="184" r="64" style="fill:none;stroke:#fff;stroke-miterlimit:10;stroke-width:2px"/><circle id="ring2" cx="184" cy="184" r="80" style="fill:none;stroke:#fff;stroke-miterlimit:10;stroke-width:2px;opacity:0.4"/></g><g id="dots-lb"><circle cx="84" cy="84" r="4" style="fill:#fff;opacity:0.30000000000000004"/><circle cx="100" cy="100" r="4" style="fill:#fff;opacity:0.6000000000000001"/><circle cx="116" cy="116" r="4" style="fill:#fff"/></g><g id="dots-rt"><circle cx="252" cy="252" r="4" style="fill:#fff;opacity:0.30000000000000004"/><circle cx="268" cy="268" r="4" style="fill:#fff;opacity:0.6000000000000001"/><circle cx="284" cy="284" r="4" style="fill:#fff"/></g><g id="dot-rb"><circle cx="252" cy="116" r="4" style="fill:#fff;opacity:0.30000000000000004"/><circle cx="268" cy="100" r="4" style="fill:#fff;opacity:0.6000000000000001"/><circle cx="284" cy="84" r="4" style="fill:#fff"/></g><g id="dot-rb-2" data-name="dot-rb"><circle cx="84" cy="284" r="4" style="fill:#fff;opacity:0.30000000000000004"/><circle cx="100" cy="268" r="4" style="fill:#fff;opacity:0.6000000000000001"/><circle cx="116" cy="252" r="4" style="fill:#fff"/></g><g id="avatar"><circle id="circle" cx="48" cy="48" r="40" style="fill:none;stroke:#fff;stroke-miterlimit:10;stroke-width:2px"/><g id="icon"><path d="M48,58c-4.93,0-9.3-4-11.12-10C35.23,47.9,34,45.79,34,43a8.36,8.36,0,0,1,.3-2.26A13.46,13.46,0,0,1,34,38a14,14,0,0,1,28,0,13.46,13.46,0,0,1-.3,2.74A8.36,8.36,0,0,1,62,43c0,2.79-1.23,4.9-2.88,5C57.3,54,52.93,58,48,58ZM37.59,45.83a.94.94,0,0,1,.35.06,1,1,0,0,1,.63.66C40,52.21,43.75,56,48,56s8-3.79,9.44-9.44a1,1,0,0,1,1.5-.61c.34.07,1.06-1,1.06-3a6.06,6.06,0,0,0-.29-1.9,1,1,0,0,1,0-.53A11.82,11.82,0,0,0,60,38a12,12,0,1,0-23.69,2.57,1,1,0,0,1,0,.53A6.12,6.12,0,0,0,36,43c0,1.94.75,3,1,3A1.11,1.11,0,0,1,37.59,45.83Z" style="fill:#fff"/><path d="M71,72H25a1,1,0,0,1-1-1V69.53a13,13,0,0,1,8.73-12.28l5.14-1.79a1,1,0,0,1,1.07.27A12.33,12.33,0,0,0,48,60a12.32,12.32,0,0,0,9.06-4.27,1,1,0,0,1,1.07-.27l5.14,1.79A13,13,0,0,1,72,69.53V71A1,1,0,0,1,71,72ZM26,70H70v-.47a11,11,0,0,0-7.39-10.39l-4.54-1.58a13.66,13.66,0,0,1-20.15,0l-4.54,1.58A11,11,0,0,0,26,69.53Z" style="fill:#fff"/><path d="M35.34,41.78A1,1,0,0,1,35,39.85c.07,0,7-2.88,7-8.85a1,1,0,0,1,2,0c.3,1.32,8.43,8.78,16.66,8.78a1,1,0,1,1,0,2c-6.76,0-13.94-4.6-17.06-8-1.62,5.4-7.6,7.83-7.9,8A1,1,0,0,1,35.34,41.78Z" style="fill:#fff"/><path d="M45,44H43a1,1,0,0,1,0-2h2a1,1,0,0,1,0,2Z" style="fill:#fff"/><path d="M53,44H51a1,1,0,0,1,0-2h2a1,1,0,0,1,0,2Z" style="fill:#fff"/><path d="M41,55h-.12c-.85-.1-8.38-1.07-10.59-3.29a1,1,0,0,1,0-1.41C32.21,48.38,34,41.23,34,38a1,1,0,0,1,2,0c0,3-1.44,9.67-3.56,12.81,1.93,1.06,6.14,1.89,8.69,2.2A1,1,0,0,1,41,55Z" style="fill:#fff"/><path d="M55,55a1,1,0,0,1-.12-2c2.55-.31,6.75-1.14,8.69-2.2C61.44,47.67,60,41,60,38a1,1,0,0,1,2,0c0,3.23,1.79,10.38,3.71,12.29a1,1,0,0,1,0,1.41C63.5,53.92,56,54.89,55.12,55Z" style="fill:#fff"/></g></g><g id="avatar-2" data-name="avatar"><circle id="circle-2" data-name="circle" cx="320" cy="48" r="40" style="fill:none;stroke:#fff;stroke-miterlimit:10;stroke-width:2px"/><g id="icon-2" data-name="icon"><path d="M320,58c-4.93,0-9.3-4-11.12-10-1.65-.1-2.88-2.21-2.88-5a8.27,8.27,0,0,1,.3-2.26A13.29,13.29,0,0,1,306,38a14,14,0,0,1,28,0,13.29,13.29,0,0,1-.3,2.74A8.27,8.27,0,0,1,334,43c0,2.79-1.23,4.9-2.88,5C329.3,54,324.93,58,320,58ZM309.59,45.83a.94.94,0,0,1,.35.07,1,1,0,0,1,.63.66C312,52.21,315.75,56,320,56s8-3.79,9.44-9.44a1,1,0,0,1,.59-.69,1,1,0,0,1,.9.08c.33.06,1.06-1,1.06-3a6.06,6.06,0,0,0-.29-1.9,1,1,0,0,1,0-.53A11.76,11.76,0,0,0,332,38a12,12,0,0,0-24,0,11.79,11.79,0,0,0,.31,2.57,1,1,0,0,1,0,.53A6,6,0,0,0,308,43c0,1.94.75,3,1,3A1.13,1.13,0,0,1,309.59,45.83Z" style="fill:#fff"/><path d="M343,72H297a1,1,0,0,1-1-1V69.53a13,13,0,0,1,8.73-12.28l5.14-1.79a1,1,0,0,1,1.07.27,11.75,11.75,0,0,0,18.12,0,1,1,0,0,1,1.07-.27l5.14,1.79h0A13,13,0,0,1,344,69.53V71A1,1,0,0,1,343,72Zm-45-2h44v-.47a11,11,0,0,0-7.39-10.39l-4.54-1.58a13.67,13.67,0,0,1-20.16,0l-4.54,1.58A11,11,0,0,0,298,69.53Z" style="fill:#fff"/><path d="M330,42a1,1,0,0,1-.91-.59,14.75,14.75,0,0,1-1-3.44,18.25,18.25,0,0,1-10.69-4.46,4.13,4.13,0,0,1-.67.87c-1.61,1.6-4.16,1.6-5.46,1.62a15.06,15.06,0,0,0-.26,4.93A1,1,0,0,1,309.85,42a20.22,20.22,0,0,0-2.51-.21,1,1,0,0,1,0-2c.54,0,1.12,0,1.6.08-.06-1.81,0-4.39.93-5.36a1.79,1.79,0,0,1,1.41-.51c1.2,0,3.06-.06,4-1a2.62,2.62,0,0,0,.69-2,1,1,0,0,1,2,0c.12,1,5.13,5,11,5a1,1,0,0,1,1,1,9.57,9.57,0,0,0,.66,2.94l1.93-.16a1,1,0,1,1,.16,2l-2.66.22Z" style="fill:#fff"/><path d="M317,44h-2a1,1,0,0,1,0-2h2a1,1,0,0,1,0,2Z" style="fill:#fff"/><path d="M325,44h-2a1,1,0,0,1,0-2h2a1,1,0,0,1,0,2Z" style="fill:#fff"/><path d="M315,50a6.77,6.77,0,0,1-5.71-2.29,1,1,0,0,1,1.41-1.41A4.88,4.88,0,0,0,315,48a3.08,3.08,0,0,0,1.81-.79A5.26,5.26,0,0,1,320,46a1,1,0,0,1,0,2,3.37,3.37,0,0,0-2,.85A4.85,4.85,0,0,1,315,50Z" style="fill:#fff"/><path d="M325,50a4.85,4.85,0,0,1-3-1.15,3.37,3.37,0,0,0-2-.85,1,1,0,0,1,0-2,5.26,5.26,0,0,1,3.19,1.21A3.08,3.08,0,0,0,325,48a4.87,4.87,0,0,0,4.29-1.71,1,1,0,0,1,1.41,1.41A6.76,6.76,0,0,1,325,50Z" style="fill:#fff"/><path d="M321,52h-2a1,1,0,0,1,0-2h2a1,1,0,0,1,0,2Z" style="fill:#fff"/></g></g><g id="avatar-3" data-name="avatar"><circle id="circle-3" data-name="circle" cx="48" cy="320" r="40" style="fill:none;stroke:#fff;stroke-miterlimit:10;stroke-width:2px"/><g id="icon-3" data-name="icon"><path d="M48,330c-4.93,0-9.3-4-11.12-10-1.65-.1-2.88-2.21-2.88-5a8.36,8.36,0,0,1,.3-2.26A13.46,13.46,0,0,1,34,310a14,14,0,0,1,28,0,13.46,13.46,0,0,1-.3,2.74A8.36,8.36,0,0,1,62,315c0,2.79-1.23,4.9-2.88,5C57.3,326,52.93,330,48,330ZM37.59,317.83a.94.94,0,0,1,.35.06,1,1,0,0,1,.63.66C40,324.21,43.75,328,48,328s8-3.79,9.44-9.44a1,1,0,0,1,1.5-.61c.33.07,1.06-1,1.06-3a6.06,6.06,0,0,0-.29-1.9,1,1,0,0,1,0-.53A11.82,11.82,0,0,0,60,310a12,12,0,1,0-23.69,2.57,1,1,0,0,1,0,.53A6.12,6.12,0,0,0,36,315c0,1.94.75,3,1,3A1.11,1.11,0,0,1,37.59,317.83Z" style="fill:#fff"/><path d="M58,314a1,1,0,0,1-.91-.59,14.75,14.75,0,0,1-1-3.44,18.25,18.25,0,0,1-10.69-4.46,4.07,4.07,0,0,1-.67.87c-1.6,1.6-4.15,1.61-5.45,1.62a15.06,15.06,0,0,0-.26,4.93A1,1,0,0,1,37.85,314a20.22,20.22,0,0,0-2.51-.21,1,1,0,1,1,0-2c.54,0,1.12,0,1.6.08-.06-1.81,0-4.39.93-5.36a1.79,1.79,0,0,1,1.41-.51c1.2,0,3.06-.06,4-1a2.62,2.62,0,0,0,.69-2,1,1,0,0,1,2,0c.12,1,5.13,5,11,5a1,1,0,0,1,1,1,9.51,9.51,0,0,0,.66,2.94l1.93-.16a1,1,0,0,1,.16,2l-2.66.22Z" style="fill:#fff"/><path d="M45,316H43a1,1,0,0,1,0-2h2a1,1,0,1,1,0,2Z" style="fill:#fff"/><path d="M53,316H51a1,1,0,0,1,0-2h2a1,1,0,1,1,0,2Z" style="fill:#fff"/><path d="M71,344H25a1,1,0,0,1-1-1.24l1.55-6.21a5,5,0,0,1,2.62-3.26l10.35-5.18a1,1,0,0,1,.79,0,1,1,0,0,1,.58.55l5.15,12,.76-1.51C45.16,338.19,44,336.4,44,335c0-1.85,1.53-3,4-3s4,1.15,4,3c0,1.4-1.16,3.19-1.83,4.11l.76,1.51,5.15-12a1,1,0,0,1,.58-.55,1,1,0,0,1,.79,0l10.35,5.18a5,5,0,0,1,2.62,3.26L72,342.75A1,1,0,0,1,71,344Zm-18.48-2h17.2l-1.24-5a3,3,0,0,0-1.57-2l-9.4-4.7Zm-5.9,0h2.77l-1.28-2.55a1,1,0,0,1,.11-1.07C49,337.45,50,335.79,50,335s-1.4-1-2-1-2,.1-2,1,1.06,2.48,1.78,3.38a1,1,0,0,1,.11,1.07Zm-20.34,0h17.2l-5-11.63-9.4,4.7a3,3,0,0,0-1.57,2Z" style="fill:#fff"/></g></g><g id="avatar-4" data-name="avatar"><circle id="avatar-5" data-name="avatar" cx="320" cy="320" r="40" style="fill:none;stroke:#fff;stroke-miterlimit:10;stroke-width:2px"/><g id="icon-4" data-name="icon"><path d="M320,330c-4.93,0-9.3-4-11.12-10-1.65-.1-2.88-2.21-2.88-5a8.36,8.36,0,0,1,.3-2.26A13.46,13.46,0,0,1,306,310a14,14,0,0,1,28,0,13.46,13.46,0,0,1-.3,2.74A8.36,8.36,0,0,1,334,315c0,2.79-1.23,4.9-2.88,5C329.3,326,324.93,330,320,330Zm-10.41-12.17a.94.94,0,0,1,.35.06,1,1,0,0,1,.63.66c1.4,5.65,5.19,9.44,9.44,9.44s8-3.79,9.44-9.44a1,1,0,0,1,1.5-.61c.35.07,1.06-1,1.06-3a6.06,6.06,0,0,0-.29-1.9,1,1,0,0,1,0-.53A11.82,11.82,0,0,0,332,310a12,12,0,1,0-23.69,2.57,1,1,0,0,1,0,.53A6.12,6.12,0,0,0,308,315c0,1.94.75,3,1,3A1.11,1.11,0,0,1,309.59,317.83Z" style="fill:#fff"/><path d="M307.34,313.78a1,1,0,0,1-.37-1.93c.07,0,7-2.88,7-8.85a1,1,0,0,1,2,0c.3,1.32,8.43,8.78,16.66,8.78a1,1,0,0,1,0,2c-6.76,0-13.94-4.6-17.06-8-1.62,5.4-7.6,7.83-7.9,8A1,1,0,0,1,307.34,313.78Z" style="fill:#fff"/><path d="M317,316h-2a1,1,0,0,1,0-2h2a1,1,0,0,1,0,2Z" style="fill:#fff"/><path d="M325,316h-2a1,1,0,0,1,0-2h2a1,1,0,0,1,0,2Z" style="fill:#fff"/><path d="M313,327h-.12c-.85-.1-8.38-1.07-10.59-3.29a1,1,0,0,1,0-1.41c1.91-1.91,3.71-9.06,3.71-12.29a1,1,0,0,1,2,0c0,3-1.44,9.67-3.56,12.81,1.93,1.06,6.14,1.89,8.69,2.2a1,1,0,0,1-.12,2Z" style="fill:#fff"/><path d="M327,327a1,1,0,0,1-.12-2c2.55-.31,6.75-1.14,8.69-2.2C333.44,319.67,332,313,332,310a1,1,0,0,1,2,0c0,3.23,1.79,10.38,3.71,12.29a1,1,0,0,1,0,1.41c-2.21,2.21-9.74,3.18-10.59,3.29Z" style="fill:#fff"/><path d="M320,344H297a1,1,0,0,1-1-1.24l1.55-6.21a5,5,0,0,1,2.62-3.26l10.35-5.18a1,1,0,0,1,1.32,1.39l-3.35,5.85,2.72.68a1,1,0,0,1,.31.14l9,6A1,1,0,0,1,320,344Zm-21.72-2H316.7l-6.11-4.07-3.83-1a1,1,0,0,1-.63-1.47l2.36-4.13-7.4,3.7a3,3,0,0,0-1.57,2Z" style="fill:#fff"/><path d="M343,344H320a1,1,0,0,1-.56-1.83l9-6a1,1,0,0,1,.31-.14l2.72-.68-3.35-5.85a1,1,0,0,1,1.32-1.39l10.35,5.18a5,5,0,0,1,2.62,3.26l1.55,6.21a1,1,0,0,1-.18.86A1,1,0,0,1,343,344Zm-19.7-2h18.42l-1.24-5a3,3,0,0,0-1.57-2l-7.4-3.7,2.36,4.13a1,1,0,0,1-.63,1.47l-3.83,1Z" style="fill:#fff"/><path d="M320,344a1,1,0,0,1-.84-.46l-9-14a1,1,0,0,1,1.68-1.08L320,341.15l8.16-12.69a1,1,0,1,1,1.68,1.08l-9,14A1,1,0,0,1,320,344Z" style="fill:#fff"/></g></g></g></svg>