<?xml version="1.0" encoding="UTF-8"?>
<svg width="206px" height="56px" viewBox="0 0 206 56" version="1.1" xmlns="http://www.w3.org/2000/svg" xmlns:xlink="http://www.w3.org/1999/xlink">
    <!-- Generator: Sketch 50.2 (55047) - http://www.bohemiancoding.com/sketch -->
    <title>chrome/logo-white--concept</title>
    <desc>Created with Sketch.</desc>
    <defs></defs>
    <g id="chrome/logo-white--concept" stroke="none" stroke-width="1" fill="none" fill-rule="evenodd">
        <path d="M62.496,21.152 C63.504,21.152 63.936,21.416 63.936,21.92 L63.936,37.28 C63.936,37.784 63.504,38.048 62.496,38.048 L61.656,38.048 C60.648,38.048 60.216,37.784 60.216,37.28 L60.216,31.016 L53.736,31.016 L53.736,37.28 C53.736,37.784 53.304,38.048 52.296,38.048 L51.456,38.048 C50.448,38.048 50.016,37.784 50.016,37.28 L50.016,21.92 C50.016,21.416 50.448,21.152 51.456,21.152 L52.296,21.152 C53.304,21.152 53.736,21.416 53.736,21.92 L53.736,27.848 L60.216,27.848 L60.216,21.92 C60.216,21.416 60.648,21.152 61.656,21.152 L62.496,21.152 Z M76.032,25.4 C77.04,25.4 77.472,25.664 77.472,26.168 L77.472,33.776 C77.472,36.248 77.76,36.752 77.76,37.256 C77.76,37.832 75.672,38.024 75.072,38.024 C74.304,38.024 74.256,37.016 74.112,36.368 C73.416,37.28 72.096,38.192 70.536,38.192 C68.136,38.192 67.008,36.968 67.008,34.304 L67.008,26.168 C67.008,25.664 67.44,25.4 68.448,25.4 L69.12,25.4 C70.128,25.4 70.56,25.664 70.56,26.168 L70.56,33.776 C70.56,34.712 70.944,35.264 72,35.264 C72.984,35.264 73.632,34.424 73.92,33.872 L73.92,26.168 C73.92,25.664 74.352,25.4 75.36,25.4 L76.032,25.4 Z M87.384,25.256 C89.784,25.256 90.912,26.48 90.912,29.144 L90.912,37.28 C90.912,37.784 90.48,38.048 89.472,38.048 L88.8,38.048 C87.792,38.048 87.36,37.784 87.36,37.28 L87.36,29.672 C87.36,28.736 86.976,28.184 85.92,28.184 C84.936,28.184 84.288,29.024 84,29.576 L84,37.28 C84,37.784 83.568,38.048 82.56,38.048 L81.888,38.048 C80.88,38.048 80.448,37.784 80.448,37.28 L80.448,29.672 C80.448,27.272 80.16,26.768 80.16,26.288 C80.16,25.712 82.248,25.52 82.848,25.52 C83.616,25.52 83.664,26.48 83.808,27.08 C84.504,26.168 85.824,25.256 87.384,25.256 Z M99.504,25.256 C101.208,25.256 103.488,25.808 103.488,26.912 C103.488,27.368 102.624,28.76 102.216,28.76 C102.12,28.76 101.976,28.688 101.784,28.592 C101.352,28.376 100.704,28.064 99.696,28.064 C97.776,28.064 96.984,29.264 96.984,31.712 C96.984,34.184 97.728,35.384 99.552,35.384 C100.68,35.384 101.448,35.048 101.904,34.832 C102.096,34.76 102.24,34.688 102.336,34.688 C102.864,34.688 103.584,36.032 103.584,36.512 C103.584,37.856 100.176,38.192 99.384,38.192 C95.28,38.192 93.336,36.104 93.336,31.808 C93.336,27.536 95.208,25.256 99.504,25.256 Z M107.664,19.904 C108.672,19.904 109.104,20.168 109.104,20.672 L109.104,26.888 C109.848,26 111.048,25.256 112.488,25.256 C114.888,25.256 116.112,26.48 116.112,29.144 L116.112,37.28 C116.112,37.784 115.68,38.048 114.672,38.048 L114,38.048 C112.992,38.048 112.56,37.784 112.56,37.28 L112.56,29.672 C112.56,28.736 112.08,28.184 111.024,28.184 C110.04,28.184 109.392,29.024 109.104,29.576 L109.104,37.28 C109.104,37.784 108.672,38.048 107.664,38.048 L106.992,38.048 C105.984,38.048 105.552,37.784 105.552,37.28 L105.552,20.672 C105.552,20.168 105.984,19.904 106.992,19.904 L107.664,19.904 Z M124.896,21.2 C128.952,21.2 130.56,22.928 130.56,25.448 C130.56,27.08 129.408,28.496 127.968,29.096 L127.992,29.192 C129.912,29.576 131.232,31.28 131.232,33.128 C131.232,36.224 129.288,38 125.232,38 L120.144,38 C119.472,38 119.184,37.712 119.184,37.04 L119.184,22.16 C119.184,21.488 119.472,21.2 120.144,21.2 L124.896,21.2 Z M124.584,24.32 L122.88,24.32 L122.88,27.896 L124.536,27.896 C125.976,27.896 126.768,27.104 126.768,26.096 C126.768,24.92 126.048,24.32 124.584,24.32 Z M124.848,31.04 L122.88,31.04 L122.88,34.856 L125.232,34.856 C126.624,34.856 127.44,34.16 127.44,32.912 C127.44,31.664 126.504,31.04 124.848,31.04 Z M142.2,25.4 C143.208,25.4 143.64,25.664 143.64,26.168 L143.64,33.776 C143.64,36.248 143.928,36.752 143.928,37.256 C143.928,37.832 141.84,38.024 141.24,38.024 C140.472,38.024 140.424,37.016 140.28,36.368 C139.584,37.28 138.264,38.192 136.704,38.192 C134.304,38.192 133.176,36.968 133.176,34.304 L133.176,26.168 C133.176,25.664 133.608,25.4 134.616,25.4 L135.288,25.4 C136.296,25.4 136.728,25.664 136.728,26.168 L136.728,33.776 C136.728,34.712 137.112,35.264 138.168,35.264 C139.152,35.264 139.8,34.424 140.088,33.872 L140.088,26.168 C140.088,25.664 140.52,25.4 141.528,25.4 L142.2,25.4 Z M155.376,25.448 C155.64,25.448 156.072,26.624 156.072,27.296 C156.072,27.464 156.048,27.584 156,27.656 L150.528,35.192 L155.448,35.192 C155.952,35.192 156.168,35.552 156.168,36.392 L156.168,36.8 C156.168,37.64 155.952,38 155.448,38 L146.472,38 C146.16,38 145.776,36.8 145.776,36.176 C145.776,36.032 145.8,35.912 145.848,35.84 L151.344,28.256 L146.88,28.256 C146.376,28.256 146.16,27.896 146.16,27.056 L146.16,26.648 C146.16,25.808 146.376,25.448 146.88,25.448 L155.376,25.448 Z M167.112,25.448 C167.376,25.448 167.808,26.624 167.808,27.296 C167.808,27.464 167.784,27.584 167.736,27.656 L162.264,35.192 L167.184,35.192 C167.688,35.192 167.904,35.552 167.904,36.392 L167.904,36.8 C167.904,37.64 167.688,38 167.184,38 L158.208,38 C157.896,38 157.512,36.8 157.512,36.176 C157.512,36.032 157.536,35.912 157.584,35.84 L163.08,28.256 L158.616,28.256 C158.112,28.256 157.896,27.896 157.896,27.056 L157.896,26.648 C157.896,25.808 158.112,25.448 158.616,25.448 L167.112,25.448 Z" id="HunchBuzz" fill="#FFFFFF"></path>
        <g id="emblem" transform="translate(0.000000, 12.000000)">
            <rect id="bounds" x="0" y="0" width="32" height="32"></rect>
            <path d="M10,0 L22,0 C23.1045695,-2.02906125e-16 24,0.8954305 24,2 L24,4 L8,4 L8,2 C8,0.8954305 8.8954305,2.02906125e-16 10,0 Z M8,28 L24,28 L24,30 C24,31.1045695 23.1045695,32 22,32 L10,32 C8.8954305,32 8,31.1045695 8,30 L8,28 Z M2,14 L30,14 C31.1045695,14 32,14.8954305 32,16 C32,17.1045695 31.1045695,18 30,18 L2,18 C0.8954305,18 1.3527075e-16,17.1045695 0,16 C-1.3527075e-16,14.8954305 0.8954305,14 2,14 Z M6,7 L26,7 C27.1045695,7 28,7.8954305 28,9 L28,11 L4,11 L4,9 C4,7.8954305 4.8954305,7 6,7 Z M4,21 L28,21 L28,23 C28,24.1045695 27.1045695,25 26,25 L6,25 C4.8954305,25 4,24.1045695 4,23 L4,21 Z" id="Combined-Shape" fill="#FFFFFF"></path>
        </g>
    </g>
</svg>